<svg id="圖層_1" data-name="圖層 1" xmlns="http://www.w3.org/2000/svg" viewBox="0 0 118.63 43.17"><defs><style>.cls-1{fill:#fff;}</style></defs><path class="cls-1" d="M28.49.8,12.22,22.93H10.16l15.2-20.6H18a10.93,10.93,0,0,0-4.87.78,5.17,5.17,0,0,0-2.21,3.13h-.48a31.6,31.6,0,0,1,.36-3.32A13.33,13.33,0,0,0,11,1.32s0-.3-.05-.77A53.66,53.66,0,0,0,16.69.8ZM14.13,22.93,30.44.8h2L17.34,21.4h6.74q4,0,5.65-1.3a8.32,8.32,0,0,0,2.5-3.24h.48a15.35,15.35,0,0,1-.77,3.26,17.07,17.07,0,0,0-.78,3.06c-1.89-.16-3.61-.25-5.17-.25Z"/><path class="cls-1" d="M38.51,2.77a16.55,16.55,0,0,0-2.31,9.14,16.7,16.7,0,0,0,2.2,8.73q-4.23-2.79-4.24-8.94Q34.16,5.37,38.51,2.77Zm17.68,9A16,16,0,0,1,55,18.29a8.17,8.17,0,0,1-3.25,3.91A9,9,0,0,1,47,23.48a8,8,0,0,1-6.76-3.13q-2.4-3.13-2.4-8.61C37.79,8,38.61,5,40.23,3a8.13,8.13,0,0,1,6.68-3,8.37,8.37,0,0,1,6.8,3Q56.19,6,56.19,11.76Zm-2,0q0-10-7.31-10.06T39.75,12q0,9.71,7.24,9.71T54.22,11.78Zm1.22,9q2.28-3.11,2.28-9.37,0-5.52-2.26-8.61,4.32,2.58,4.32,8.84T55.44,20.77Z"/><path class="cls-1" d="M66.29,2.77A16.55,16.55,0,0,0,64,11.91a16.7,16.7,0,0,0,2.21,8.73Q61.95,17.85,62,11.7,62,5.37,66.29,2.77Zm17.68,9a16.23,16.23,0,0,1-1.17,6.53,8.19,8.19,0,0,1-3.26,3.91,8.93,8.93,0,0,1-4.81,1.28A8,8,0,0,1,68,20.35q-2.39-3.13-2.39-8.61C65.58,8,66.39,5,68,3a8.15,8.15,0,0,1,6.68-3A8.4,8.4,0,0,1,81.5,3Q84,6,84,11.76Zm-2,0q0-10-7.31-10.06-7.16,0-7.16,10.31,0,9.71,7.25,9.71T82,11.78Zm1.22,9c1.52-2.07,2.29-5.19,2.29-9.37q0-5.52-2.27-8.61,4.32,2.58,4.33,8.84T83.22,20.77Z"/><path class="cls-1" d="M94,.8h.69V22.93H93.3c-.49,0-1.53.09-3.11.25v-.37a3.06,3.06,0,0,0,1.72-1.07,4.47,4.47,0,0,0,.82-1.83A27.7,27.7,0,0,0,93,15.29V6.49c0-2-.27-3.42-.82-4.18a3.25,3.25,0,0,0-2-1.39V.55ZM104.6,22.93H96.2V.8h6.11c1.15,0,3.32-.09,6.51-.25,0,.42,0,.73,0,.94s0,.93.1,2c0,.69.06,1.06.06,1.12v.52h-.35a4.59,4.59,0,0,0-1.72-2.33,9,9,0,0,0-3.64-.5H99.89a9.61,9.61,0,0,0-1.47.1A9.69,9.69,0,0,0,98,5.75l0,1.43v3.43h4.54a8.37,8.37,0,0,0,3.4-.45,3.29,3.29,0,0,0,1.34-2.1h.46c-.11,1.26-.16,2.36-.16,3.28q0,.88.12,2.31c0,.28.07.83.11,1.66h-.46a3.47,3.47,0,0,0-1.12-2.54,5,5,0,0,0-3-.69H97.94v4.57a33.07,33.07,0,0,0,.29,4.64,12.56,12.56,0,0,0,1.89.13h3.2a10.1,10.1,0,0,0,3.92-.59A6.71,6.71,0,0,0,110,18.12h.42a18.7,18.7,0,0,1-.69,2.23,24.31,24.31,0,0,0-.82,2.83C107.29,23,105.86,22.93,104.6,22.93Z"/><path class="cls-1" d="M2.23,36.12a1.15,1.15,0,0,1-1.11,1.11A1.12,1.12,0,0,1,0,36.12,1.09,1.09,0,0,1,1.12,35,1.12,1.12,0,0,1,2.23,36.12Z"/><path class="cls-1" d="M16.3,30.48l1,.3q-.2.75-.45,1.47H18V29.86h1.13v2.39h2.67V33.4H19.08v2h3.07v1.14H19.76a12.22,12.22,0,0,0,2.62,3.75l-1,1.13a17.6,17.6,0,0,1-2.32-3.85V43H18V37.57A13.37,13.37,0,0,1,15.1,41.3l-.48-.49.13.89a52.82,52.82,0,0,1-5.39.95l-.24-1.2c.85-.09,1.65-.2,2.39-.31V37.25H9.36V36.18h2.15V34.86H10.26V34a7.31,7.31,0,0,1-.57.51l-.78-.79a10.91,10.91,0,0,0,1.59-1.85,10.27,10.27,0,0,0,1.18-2.14l1.14.35-.25.57a14.28,14.28,0,0,1,2.53,1.87l-.79,1a19.06,19.06,0,0,0-2.23-1.87,7.86,7.86,0,0,1-.54.87,8.16,8.16,0,0,1-1,1.29h3.75v1.07H12.66v1.32h1.92v1.07H12.66v3.69c.62-.1,1.21-.22,1.75-.34l-.22-.21a11.32,11.32,0,0,0,3.16-3.82H14.88V35.43H18v-2H16.41a8.7,8.7,0,0,1-1,1.76l-.81-.8a9.72,9.72,0,0,0,1-1.8A13.12,13.12,0,0,0,16.3,30.48Zm-5.87,7.39a12.33,12.33,0,0,1,.75,2.45l-1.08.35a10.25,10.25,0,0,0-.74-2.44Zm3.25,0,1.07.3a13.48,13.48,0,0,1-.74,2l-.95-.27A15.07,15.07,0,0,0,13.68,37.87Z"/><path class="cls-1" d="M31.33,36.12a1.15,1.15,0,0,1-1.11,1.11,1.12,1.12,0,0,1-1.12-1.11A1.09,1.09,0,0,1,30.22,35,1.12,1.12,0,0,1,31.33,36.12Z"/><path class="cls-1" d="M38.34,30.67h5.34v1.12h-2v3h1.71v1.14H41.7v3.43c.7-.22,1.35-.45,2-.69l.17,1.08a36.4,36.4,0,0,1-5.22,1.88l-.46-1.32q1.21-.28,2.34-.6V35.94h-2V34.8h2v-3H38.34Zm5.75-.34h6.65v1.13H48.18v3.7h3.19V36.3H48.18v5c0,.65-.11,1.06-.35,1.23a1.88,1.88,0,0,1-1.29.36,6.78,6.78,0,0,1-1.67-.19l-.21-1.35a6.36,6.36,0,0,0,1.88.29q.45,0,.45-.57V36.3H43.68V35.16H47v-3.7h-2.9Z"/><path class="cls-1" d="M60.43,36.12a1.14,1.14,0,0,1-1.11,1.11,1.12,1.12,0,0,1-1.12-1.11A1.09,1.09,0,0,1,59.32,35,1.12,1.12,0,0,1,60.43,36.12Z"/><path class="cls-1" d="M71,32.81l.18,1a21.89,21.89,0,0,1-3.41,1.58l-.41-1.19A23.41,23.41,0,0,0,71,32.81Zm1.14,8.43.68.74a15.12,15.12,0,0,1-2.15.58c-.8.17-1.7.32-2.68.44l-.44-1c1-.1,1.84-.2,2.61-.33S71.59,41.39,72.16,41.24ZM68.58,30A15.35,15.35,0,0,1,71,31.35l-.78.9a12.06,12.06,0,0,0-2.4-1.3Zm4.67-.28,1.14.35-.2.44h5.92a9.15,9.15,0,0,1-1.52,2.74l-.92-.62a6.76,6.76,0,0,0,.72-1.08H76.57a4.41,4.41,0,0,1-.28.87,2.75,2.75,0,0,0,.73.75,5.76,5.76,0,0,0,1.3.65,16.71,16.71,0,0,0,2,.51l-.63,1.13a10.18,10.18,0,0,1-2.29-.86,4.84,4.84,0,0,1-1.36-1,1.81,1.81,0,0,1-.25-.3l-.39.44a7.35,7.35,0,0,1-2.78,1.57h6.22v5.75H69.14V35.32H72l-.43-.79a7.46,7.46,0,0,0,2.87-1.37,3.1,3.1,0,0,0,1-1.58H73.62a1.56,1.56,0,0,0-.16.2,6.36,6.36,0,0,1-1.3,1.45l-.73-.74a7.79,7.79,0,0,0,1-1.28A8.88,8.88,0,0,0,73.25,29.75Zm-2.86,7.17h7.18V36.3H70.39Zm0,1.58h7.18v-.68H70.39Zm0,1.6h7.18v-.68H70.39Zm5.52,1.14q2.3.36,4.32.84l-.5,1.09a37,37,0,0,0-4.26-1.09Z"/><path class="cls-1" d="M89.53,36.12a1.14,1.14,0,0,1-1.11,1.11,1.12,1.12,0,0,1-1.12-1.11A1.09,1.09,0,0,1,88.42,35,1.12,1.12,0,0,1,89.53,36.12Z"/><path class="cls-1" d="M96.37,31.41h2.14a7.13,7.13,0,0,0-.59-1.31L99,29.75a8.11,8.11,0,0,1,.76,1.66h2.14V32.6H96.37Zm.57,2.2h4.37v1.14H96.94Zm0,2.17h4.37v1.14H96.94Zm4.32,2v4.73h-1.14v-.63h-2v.73H97V37.82Zm-3.11,3h2V39h-2Zm4.09-10.4h5.62v7.5q0,1.32.06,2.16a4.81,4.81,0,0,0,.23,1.18c.09.29.19.43.28.43s.11-.1.16-.29.11-.94.18-2.1l1.2.63a6.17,6.17,0,0,1-.73,2.6,1,1,0,0,1-.81.47,1.15,1.15,0,0,1-.88-.56,4.21,4.21,0,0,1-.68-1.65,17.45,17.45,0,0,1-.2-2.87V31.52h-2v3.91h1.58v1.14h-1.58V43h-1.13V36.57h-1.43V35.43h1.43V31.52h-1.31Z"/><path class="cls-1" d="M118.63,36.12a1.14,1.14,0,0,1-1.1,1.11,1.12,1.12,0,0,1-1.12-1.11A1.09,1.09,0,0,1,117.53,35,1.11,1.11,0,0,1,118.63,36.12Z"/></svg>